<mxfile host="app.diagrams.net" agent="Mozilla/5.0 (Windows NT 10.0; Win64; x64) AppleWebKit/537.36 (KHTML, like Gecko) Chrome/130.0.0.0 Safari/537.36 Edg/130.0.0.0" version="24.8.3" pages="2">
  <diagram name="Page-1" id="uw7urMl42E5tcrVaVIOS">
    <mxGraphModel dx="1426" dy="755" grid="1" gridSize="10" guides="1" tooltips="1" connect="1" arrows="1" fold="1" page="1" pageScale="1" pageWidth="827" pageHeight="1169" math="0" shadow="0">
      <root>
        <mxCell id="0" />
        <mxCell id="1" parent="0" />
        <mxCell id="c4K4P2OYtK1ANyOnssvS-1" style="edgeStyle=orthogonalEdgeStyle;rounded=0;html=1;dashed=1;labelBackgroundColor=none;startArrow=none;startFill=0;startSize=8;endArrow=open;endFill=0;endSize=16;fontFamily=Verdana;fontSize=12;exitX=0;exitY=0.5;exitDx=0;exitDy=0;" parent="1" source="c4K4P2OYtK1ANyOnssvS-11" target="c4K4P2OYtK1ANyOnssvS-2" edge="1">
          <mxGeometry relative="1" as="geometry">
            <Array as="points">
              <mxPoint x="380" y="443" />
              <mxPoint x="380" y="400" />
            </Array>
            <mxPoint x="440" y="310" as="targetPoint" />
          </mxGeometry>
        </mxCell>
        <mxCell id="c4K4P2OYtK1ANyOnssvS-2" value="Sample" style="swimlane;html=1;fontStyle=1;align=center;verticalAlign=top;childLayout=stackLayout;horizontal=1;startSize=26;horizontalStack=0;resizeParent=1;resizeLast=0;collapsible=1;marginBottom=0;swimlaneFillColor=#ffffff;rounded=0;shadow=0;comic=0;labelBackgroundColor=none;strokeWidth=1;fillColor=none;fontFamily=Verdana;fontSize=12" parent="1" vertex="1">
          <mxGeometry x="110" y="350" width="160" height="86" as="geometry" />
        </mxCell>
        <mxCell id="c4K4P2OYtK1ANyOnssvS-3" value="+ time: Float" style="text;html=1;strokeColor=none;fillColor=none;align=left;verticalAlign=top;spacingLeft=4;spacingRight=4;whiteSpace=wrap;overflow=hidden;rotatable=0;points=[[0,0.5],[1,0.5]];portConstraint=eastwest;" parent="c4K4P2OYtK1ANyOnssvS-2" vertex="1">
          <mxGeometry y="26" width="160" height="26" as="geometry" />
        </mxCell>
        <mxCell id="c4K4P2OYtK1ANyOnssvS-4" value="+ decibel: Float" style="text;html=1;strokeColor=none;fillColor=none;align=left;verticalAlign=top;spacingLeft=4;spacingRight=4;whiteSpace=wrap;overflow=hidden;rotatable=0;points=[[0,0.5],[1,0.5]];portConstraint=eastwest;" parent="c4K4P2OYtK1ANyOnssvS-2" vertex="1">
          <mxGeometry y="52" width="160" height="26" as="geometry" />
        </mxCell>
        <mxCell id="c4K4P2OYtK1ANyOnssvS-5" value="" style="line;html=1;strokeWidth=1;fillColor=none;align=left;verticalAlign=middle;spacingTop=-1;spacingLeft=3;spacingRight=3;rotatable=0;labelPosition=right;points=[];portConstraint=eastwest;" parent="c4K4P2OYtK1ANyOnssvS-2" vertex="1">
          <mxGeometry y="78" width="160" height="8" as="geometry" />
        </mxCell>
        <mxCell id="c4K4P2OYtK1ANyOnssvS-6" value="FilterResult" style="swimlane;html=1;fontStyle=1;align=center;verticalAlign=top;childLayout=stackLayout;horizontal=1;startSize=26;horizontalStack=0;resizeParent=1;resizeLast=0;collapsible=1;marginBottom=0;swimlaneFillColor=#ffffff;rounded=0;shadow=0;comic=0;labelBackgroundColor=none;strokeWidth=1;fillColor=none;fontFamily=Verdana;fontSize=12" parent="1" vertex="1">
          <mxGeometry x="500" y="300" width="350" height="164" as="geometry" />
        </mxCell>
        <mxCell id="c4K4P2OYtK1ANyOnssvS-7" value="+ sampleDuration: Float" style="text;html=1;strokeColor=none;fillColor=none;align=left;verticalAlign=top;spacingLeft=4;spacingRight=4;whiteSpace=wrap;overflow=hidden;rotatable=0;points=[[0,0.5],[1,0.5]];portConstraint=eastwest;" parent="c4K4P2OYtK1ANyOnssvS-6" vertex="1">
          <mxGeometry y="26" width="350" height="26" as="geometry" />
        </mxCell>
        <mxCell id="c4K4P2OYtK1ANyOnssvS-8" value="+ durationOverLimit: Float" style="text;html=1;strokeColor=none;fillColor=none;align=left;verticalAlign=top;spacingLeft=4;spacingRight=4;whiteSpace=wrap;overflow=hidden;rotatable=0;points=[[0,0.5],[1,0.5]];portConstraint=eastwest;" parent="c4K4P2OYtK1ANyOnssvS-6" vertex="1">
          <mxGeometry y="52" width="350" height="26" as="geometry" />
        </mxCell>
        <mxCell id="c4K4P2OYtK1ANyOnssvS-9" value="+ peak: Float" style="text;html=1;strokeColor=none;fillColor=none;align=left;verticalAlign=top;spacingLeft=4;spacingRight=4;whiteSpace=wrap;overflow=hidden;rotatable=0;points=[[0,0.5],[1,0.5]];portConstraint=eastwest;" parent="c4K4P2OYtK1ANyOnssvS-6" vertex="1">
          <mxGeometry y="78" width="350" height="26" as="geometry" />
        </mxCell>
        <mxCell id="c4K4P2OYtK1ANyOnssvS-10" value="+ average: Float" style="text;html=1;strokeColor=none;fillColor=none;align=left;verticalAlign=top;spacingLeft=4;spacingRight=4;whiteSpace=wrap;overflow=hidden;rotatable=0;points=[[0,0.5],[1,0.5]];portConstraint=eastwest;" parent="c4K4P2OYtK1ANyOnssvS-6" vertex="1">
          <mxGeometry y="104" width="350" height="26" as="geometry" />
        </mxCell>
        <mxCell id="c4K4P2OYtK1ANyOnssvS-11" value="+ samplesOverLimit: List&amp;lt;Sample&amp;gt;" style="text;html=1;strokeColor=none;fillColor=none;align=left;verticalAlign=top;spacingLeft=4;spacingRight=4;whiteSpace=wrap;overflow=hidden;rotatable=0;points=[[0,0.5],[1,0.5]];portConstraint=eastwest;" parent="c4K4P2OYtK1ANyOnssvS-6" vertex="1">
          <mxGeometry y="130" width="350" height="26" as="geometry" />
        </mxCell>
        <mxCell id="c4K4P2OYtK1ANyOnssvS-12" value="" style="line;html=1;strokeWidth=1;fillColor=none;align=left;verticalAlign=middle;spacingTop=-1;spacingLeft=3;spacingRight=3;rotatable=0;labelPosition=right;points=[];portConstraint=eastwest;" parent="c4K4P2OYtK1ANyOnssvS-6" vertex="1">
          <mxGeometry y="156" width="350" height="8" as="geometry" />
        </mxCell>
      </root>
    </mxGraphModel>
  </diagram>
  <diagram id="zAVa7AMhgyVqMyaeUAfR" name="Seite-2">
    <mxGraphModel dx="1426" dy="755" grid="1" gridSize="10" guides="1" tooltips="1" connect="1" arrows="1" fold="1" page="1" pageScale="1" pageWidth="827" pageHeight="1169" math="0" shadow="0">
      <root>
        <mxCell id="0" />
        <mxCell id="1" parent="0" />
      </root>
    </mxGraphModel>
  </diagram>
</mxfile>
